HIERARCHY
ROOT Hips
{
	OFFSET 0.00000 0.00000 0.00000
	CHANNELS 6 Xposition Yposition Zposition Zrotation Yrotation Xrotation 
	JOINT LHipJoint
	{
		OFFSET 0 0 0
		CHANNELS 3 Zrotation Yrotation Xrotation
		JOINT LeftHip
		{
			OFFSET 1.57338 -1.94743 0.52196
			CHANNELS 3 Zrotation Yrotation Xrotation
			JOINT LeftKnee
			{
				OFFSET 2.60333 -7.15259 0.00000
				CHANNELS 3 Zrotation Yrotation Xrotation
				JOINT LeftAnkle
				{
					OFFSET 2.77855 -7.63400 0.00000
					CHANNELS 3 Zrotation Yrotation Xrotation
					JOINT LeftToe
					{
						OFFSET 0.19847 -0.54529 2.28466
						CHANNELS 3 Zrotation Yrotation Xrotation
						End Site
						{
							OFFSET 0.00000 -0.00000 1.17993
						}
					}
				}
			}
		}
	}
	JOINT RHipJoint
	{
		OFFSET 0 0 0
		CHANNELS 3 Zrotation Yrotation Xrotation
		JOINT RightHip
		{
			OFFSET -1.61527 -1.94743 0.52196
			CHANNELS 3 Zrotation Yrotation Xrotation
			JOINT RightKnee
			{
				OFFSET -2.53829 -6.97390 0.00000
				CHANNELS 3 Zrotation Yrotation Xrotation
				JOINT RightAnkle
				{
					OFFSET -2.80762 -7.71387 0.00000
					CHANNELS 3 Zrotation Yrotation Xrotation
					JOINT RightToe
					{
						OFFSET -0.30536 -0.83898 2.28801
						CHANNELS 3 Zrotation Yrotation Xrotation
						End Site
						{
							OFFSET -0.00000 -0.00000 1.21323
						}
					}
				}
			}
		}
	}
	JOINT lowerback
	{
		OFFSET 0 0 0
		CHANNELS 3 Zrotation Yrotation Xrotation
		JOINT Chest
		{
			OFFSET -0.04381 1.99497 -0.19778
			CHANNELS 3 Zrotation Yrotation Xrotation
			JOINT Chest2
			{
				OFFSET -0.01959 2.01295 -0.04372
				CHANNELS 3 Zrotation Yrotation Xrotation
				JOINT lowerneck
				{
					OFFSET 0 0 0
					CHANNELS 3 Zrotation Yrotation Xrotation
					JOINT Neck
					{
						OFFSET -0.05459 1.76913 0.09708
						CHANNELS 3 Zrotation Yrotation Xrotation
						JOINT Head
						{
							OFFSET 0.09461 1.77368 -0.11172
							CHANNELS 3 Zrotation Yrotation Xrotation
							End Site
							{
								OFFSET 0.03812 1.78157 -0.04834
							}
						}
					}
				}
				JOINT LeftCollar
				{
					OFFSET 0 0 0
					CHANNELS 3 Zrotation Yrotation Xrotation
					JOINT LeftShoulder
					{
						OFFSET 3.50922 1.24034 -0.28866
CHANNELS 3 Zrotation Xrotation Yrotation
						JOINT LeftElbow
						{
OFFSET 0 -5.401880 0.000000
CHANNELS 3 Zrotation Xrotation Yrotation
							JOINT LeftWrist
							{
OFFSET 0 -3.685590 0.000000
CHANNELS 3 Zrotation Xrotation Yrotation
								JOINT lhand
								{
									OFFSET 0 0 0
CHANNELS 3 Zrotation Xrotation Yrotation
									JOINT LFingers
									{
OFFSET 0 -0.617530 0.000000
CHANNELS 3 Zrotation Xrotation Yrotation
										End Site
										{
OFFSET 0 -0.497870 0.000000
										}
									}
								}
								JOINT LThumb
								{
OFFSET 0 0.000000 0.000000
CHANNELS 3 Zrotation Xrotation Yrotation
									End Site
									{
OFFSET 0 -0.505470 0.505470
									}
								}
							}
						}
					}
				}
				JOINT RightCollar
				{
					OFFSET 0 0 0
					CHANNELS 3 Zrotation Yrotation Xrotation
					JOINT RightShoulder
					{
						OFFSET -2.95373 1.39649 -0.27346
CHANNELS 3 Zrotation Xrotation Yrotation
						JOINT RightElbow
						{
OFFSET 0 -6.106700 -0.000000
CHANNELS 3 Zrotation Xrotation Yrotation
							JOINT RightWrist
							{
OFFSET 0 -3.630520 0.000000
CHANNELS 3 Zrotation Xrotation Yrotation
								JOINT rhand
								{
									OFFSET 0 0 0
CHANNELS 3 Zrotation Xrotation Yrotation
									JOINT RFingers
									{
OFFSET 0 -0.583850 0.000000
CHANNELS 3 Zrotation Xrotation Yrotation
										End Site
										{
OFFSET 0 -0.470710 0.000000
										}
									}
								}
								JOINT RThumb
								{
OFFSET 0 0.000000 0.000000
CHANNELS 3 Zrotation Xrotation Yrotation
									End Site
									{
OFFSET 0 -0.477900 0.477900
									}
								}
							}
						}
					}
				}
			}
		}
	}
}
MOTION
Frames: 8
Frame Time: 0.008333333333333333
-0.284200 18.963800 -13.232400 1.736000 -3.699000 3.194000 0.000000 0.000000 0.000000 -21.169900 -9.220200 2.552600 0.201300 2.889200 7.970400 -0.111800 10.946100 -13.782900 0.101300 -2.052700 -5.651200 0.000000 0.000000 0.000000 19.875400 20.914100 4.245200 -0.655200 -5.177300 14.414900 -0.014100 -13.466700 -19.307100 -0.012500 0.722500 -1.985600 -3.228200 0.678600 2.544600 -1.130200 0.771600 -0.722900 0.614500 0.420300 -2.196900 -9.712500 -5.917500 -9.209100 7.776500 -7.832300 14.799000 3.391200 -3.738400 6.712400 0.000000 -0.000000 0.000000 2.988000 4.940500 -6.986200 12.729700 -20.889800 2.356000 19.861600 14.131600 -24.523500 0.000000 0.000000 0.000000 -7.125000 0.000000 0.000000 -10.354100 55.556900 2.703700 0.000000 -0.000000 0.000000 -6.413600 5.304600 27.671500 -15.853600 -25.321700 -3.583100 -23.944200 15.151200 -2.865400 0.000000 0.000000 0.000000 7.125000 0.000000 -0.000000 2.030100 26.843800 0.895200
-0.283323 18.964385 -13.229256 1.731466 -3.765102 3.195243 0.000000 0.000000 0.000000 -21.179186 -9.139035 2.582726 0.197863 2.864412 7.901446 -0.112531 10.948659 -13.774345 0.099691 -2.036174 -5.605572 0.000000 0.000000 0.000000 19.872841 20.933697 4.230941 -0.660319 -5.197189 14.471789 -0.025580 -13.386339 -19.330353 -0.011184 0.681479 -1.872773 -3.202900 0.703169 2.505187 -1.139706 0.807210 -0.703961 0.589639 0.436972 -2.155952 -9.689393 -5.921668 -9.197401 7.754563 -7.835737 14.744597 3.380232 -3.740813 6.691487 0.000000 0.000000 0.000000 2.994142 4.956514 -7.099612 12.762093 -20.937549 2.367553 19.918708 14.075662 -24.521233 0.000000 0.000000 0.000000 -7.125000 0.000000 0.000000 -10.293701 55.566186 2.690026 0.000000 0.000000 0.000000 -6.412576 5.264675 27.558600 -15.872758 -25.347805 -3.591290 -22.657694 16.067710 -1.673148 0.000000 0.000000 0.000000 7.125000 0.000000 0.000000 3.040132 28.156923 1.235875
-0.283694 18.964138 -13.228331 1.729338 -3.804475 3.178867 0.000000 0.000000 0.000000 -21.182184 -9.085616 2.613407 0.195675 2.848733 7.857880 -0.113540 10.952606 -13.763246 0.099100 -2.029961 -5.588384 0.000000 0.000000 0.000000 19.879253 20.937339 4.229030 -0.664142 -5.211853 14.513833 -0.032713 -13.337239 -19.345744 -0.011532 0.691557 -1.900481 -3.199473 0.715946 2.526863 -1.143015 0.823768 -0.686965 0.583506 0.444950 -2.151120 -9.653801 -5.932541 -9.239436 7.710892 -7.843844 14.724785 3.358350 -3.745076 6.690089 0.000000 0.000000 0.000000 2.987244 4.935625 -7.087888 12.755040 -20.927169 2.365048 19.982707 14.081459 -24.364096 0.000000 0.000000 0.000000 -7.125000 0.000000 0.000000 -10.157740 55.419724 2.618178 0.000000 0.000000 0.000000 -6.421865 5.233075 27.530511 -15.893211 -25.375620 -3.600080 -21.785855 16.650524 -0.798128 0.000000 0.000000 0.000000 7.125000 0.000000 0.000000 3.738343 29.109668 1.446050
-0.284887 18.963464 -13.228852 1.728994 -3.837783 3.148320 0.000000 0.000000 0.000000 -21.182862 -9.035213 2.652661 0.193767 2.834942 7.819561 -0.115291 10.962123 -13.747822 0.098693 -2.025733 -5.576668 0.000000 0.000000 0.000000 19.891712 20.933607 4.233907 -0.667659 -5.225299 14.552401 -0.036971 -13.304604 -19.350234 -0.013158 0.738907 -2.030689 -3.209302 0.727581 2.589679 -1.144252 0.836553 -0.672202 0.586535 0.451573 -2.171831 -9.610797 -5.948377 -9.309006 7.655460 -7.857029 14.731817 3.330241 -3.751556 6.701757 0.000000 0.000000 0.000000 2.978149 4.898400 -7.022314 12.729940 -20.890207 2.356116 20.020674 14.102727 -24.175990 0.000000 0.000000 0.000000 -7.125000 0.000000 0.000000 -10.035144 55.236572 2.540790 0.000000 0.000000 0.000000 -6.433390 5.203214 27.550825 -15.896716 -25.380378 -3.601610 -21.366912 16.914420 -0.305544 0.000000 0.000000 0.000000 7.125000 0.000000 0.000000 4.082632 29.639949 1.532832
-0.286350 18.962953 -13.229802 1.729725 -3.897377 3.106860 0.000000 0.000000 0.000000 -21.187249 -8.948417 2.714814 0.190623 2.811689 7.754849 -0.118654 10.984864 -13.724496 0.097158 -2.010378 -5.534257 0.000000 0.000000 0.000000 19.906482 20.935142 4.237709 -0.672412 -5.243799 14.605268 -0.040262 -13.267239 -19.337145 -0.015645 0.807276 -2.218685 -3.220636 0.755075 2.668139 -1.149737 0.869604 -0.660502 0.584780 0.468465 -2.205174 -9.567362 -5.967169 -9.368307 7.602447 -7.876772 14.757556 3.302455 -3.761208 6.718210 0.000000 0.000000 0.000000 2.983999 4.875366 -7.009152 12.718387 -20.873243 2.352021 19.975265 14.067336 -24.151787 0.000000 0.000000 0.000000 -7.125000 0.000000 0.000000 -10.071559 55.202863 2.541887 0.000000 0.000000 0.000000 -6.434487 5.164752 27.568667 -15.851088 -25.318371 -3.582013 -21.536116 16.831427 -0.362725 0.000000 0.000000 0.000000 7.125000 0.000000 0.000000 3.947576 29.578965 1.487643
-0.287156 18.962900 -13.229703 1.728422 -3.935780 3.115263 0.000000 0.000000 0.000000 -21.183698 -8.903415 2.726318 0.187872 2.791651 7.699124 -0.119656 10.982476 -13.702417 0.096081 -1.998827 -5.502344 0.000000 0.000000 0.000000 19.906885 20.967645 4.202999 -0.677033 -5.261249 14.655118 -0.041059 -13.252312 -19.325959 -0.016359 0.826503 -2.271526 -3.213599 0.767217 2.664193 -1.157189 0.886384 -0.649787 0.572528 0.476433 -2.192263 -9.574119 -5.967329 -9.363246 7.609728 -7.876832 14.743863 3.306030 -3.761150 6.713536 0.000000 0.000000 0.000000 2.988143 4.852333 -6.945012 12.714772 -20.867891 2.350747 19.899611 14.207975 -24.288982 0.000000 0.000000 0.000000 -7.125000 0.000000 0.000000 -10.210324 55.326813 2.608593 0.000000 0.000000 0.000000 -6.425218 5.154305 27.538483 -15.855388 -25.324203 -3.583871 -21.483560 16.887066 -0.269267 0.000000 0.000000 0.000000 7.125000 0.000000 0.000000 3.992683 29.679053 1.495138
-0.288158 18.963442 -13.229174 1.745013 -3.965326 3.127013 0.000000 0.000000 0.000000 -21.196395 -8.873500 2.725243 0.186058 2.778411 7.662362 -0.120775 10.978916 -13.676453 0.096917 -2.007466 -5.526244 0.000000 0.000000 0.000000 19.883410 20.980921 4.169030 -0.680788 -5.275481 14.695829 -0.045870 -13.213269 -19.328934 -0.015051 0.791535 -2.175385 -3.228201 0.773688 2.651935 -1.169282 0.895065 -0.639959 0.568098 0.480552 -2.175605 -9.590729 -5.956717 -9.333774 7.638980 -7.864800 14.703231 3.320206 -3.754790 6.696179 0.000000 0.000000 0.000000 2.997785 4.839718 -6.881773 12.715553 -20.869021 2.350997 19.792645 14.422142 -24.540054 0.000000 0.000000 0.000000 -7.125000 0.000000 0.000000 -10.434166 55.559408 2.726617 0.000000 0.000000 0.000000 -6.410733 5.174720 27.508880 -15.894881 -25.377891 -3.600812 -21.392057 16.982476 -0.113904 0.000000 0.000000 0.000000 7.125000 0.000000 0.000000 4.071162 29.845184 1.508394
-0.289449 18.964430 -13.228607 1.768287 -3.988097 3.134164 0.000000 0.000000 0.000000 -21.214193 -8.851679 2.722406 0.184963 2.770251 7.639744 -0.121953 10.976667 -13.651854 0.099154 -2.030893 -5.591037 0.000000 0.000000 0.000000 19.853399 20.977672 4.144281 -0.683833 -5.287127 14.729220 -0.054914 -13.151905 -19.350832 -0.012280 0.716096 -1.967977 -3.254485 0.777575 2.646577 -1.183032 0.899514 -0.630629 0.568623 0.482753 -2.163369 -9.612631 -5.940807 -9.292192 7.687525 -7.847993 14.646064 3.342314 -3.745304 6.671973 0.000000 0.000000 0.000000 3.014403 4.840278 -6.846376 12.722024 -20.878565 2.353262 19.675164 14.638645 -24.827137 0.000000 0.000000 0.000000 -7.125000 0.000000 0.000000 -10.686375 55.826038 2.861988 0.000000 0.000000 0.000000 -6.391416 5.203783 27.476664 -15.943096 -25.443443 -3.621484 -21.303249 17.084455 0.037599 0.000000 0.000000 0.000000 7.125000 0.000000 0.000000 4.147490 30.007058 1.520971
